<?xml version="1.0" encoding="utf-8"?>
<!-- Generator: Adobe Illustrator 22.1.0, SVG Export Plug-In . SVG Version: 6.00 Build 0)  -->
<svg version="1.1" id="Layer_1" xmlns="http://www.w3.org/2000/svg" xmlns:xlink="http://www.w3.org/1999/xlink" x="0px" y="0px"
	 viewBox="0 0 491 167" style="enable-background:new 0 0 491 167;" xml:space="preserve">
<style type="text/css">
	.st0{font-family:'Anton-Regular';}
	.st1{font-size:60px;}
	.st2{font-family:'YanoneKaffeesatz-ExtraLight';}
	.st3{fill:#F60210;}
	.st4{display:none;fill:none;stroke:#000000;stroke-miterlimit:10;}
</style>
<g>
	<text transform="matrix(1 0 0 1 28.657 77.5007)" class="st0 st1">BROOKLYN OUTDOOR</text>
	<text transform="matrix(1 0 0 1 26.657 131.1677)" class="st2 st1">FILM FESTIVAL</text>
</g>
<path class="st3" d="M473.5,2.5h-18v13c0,1.1,0.9,2,2,2h16v16c0,1.1,0.9,2,2,2h13v-18v-15H473.5z"/>
<path class="st3" d="M34.5,149.5h-16v-16c0-1.1-0.9-2-2-2h-13v18v15h15h18v-13C36.5,150.4,35.6,149.5,34.5,149.5z"/>
<rect x="10.8" y="10" class="st4" width="470" height="147"/>
</svg>
